<svg width="18" height="18" viewBox="0 0 18 18" fill="none" xmlns="http://www.w3.org/2000/svg">
<path d="M8.99998 0.250045C7.84892 0.242908 6.7079 0.464361 5.64308 0.901562C4.57826 1.33876 3.61083 1.98301 2.79689 2.79695C1.98295 3.61089 1.3387 4.57832 0.901501 5.64314C0.4643 6.70796 0.242847 7.84899 0.249984 9.00004C0.242847 10.1511 0.4643 11.2921 0.901501 12.3569C1.3387 13.4218 1.98295 14.3892 2.79689 15.2031C3.61083 16.0171 4.57826 16.6613 5.64308 17.0985C6.7079 17.5357 7.84892 17.7572 8.99998 17.75C10.151 17.7572 11.2921 17.5357 12.3569 17.0985C13.4217 16.6613 14.3891 16.0171 15.2031 15.2031C16.017 14.3892 16.6613 13.4218 17.0985 12.3569C17.5357 11.2921 17.7571 10.1511 17.75 9.00004C17.7571 7.84899 17.5357 6.70796 17.0985 5.64314C16.6613 4.57832 16.017 3.61089 15.2031 2.79695C14.3891 1.98301 13.4217 1.33876 12.3569 0.901562C11.2921 0.464361 10.151 0.242908 8.99998 0.250045ZM12.403 13.375L4.62498 5.59736L5.5973 4.62505L13.375 12.403L12.403 13.375Z" fill="#ED1D24"/>
</svg>
