<svg width="14" height="14" viewBox="0 0 14 14" fill="none" xmlns="http://www.w3.org/2000/svg">
<path d="M7.00001 0.333252C3.32001 0.333252 0.333344 3.31992 0.333344 6.99992C0.333344 10.6799 3.32001 13.6666 7.00001 13.6666C10.68 13.6666 13.6667 10.6799 13.6667 6.99992C13.6667 3.31992 10.68 0.333252 7.00001 0.333252ZM3.66668 7.99992C3.11334 7.99992 2.66668 7.55325 2.66668 6.99992C2.66668 6.44659 3.11334 5.99992 3.66668 5.99992C4.22001 5.99992 4.66668 6.44659 4.66668 6.99992C4.66668 7.55325 4.22001 7.99992 3.66668 7.99992ZM7.00001 7.99992C6.44668 7.99992 6.00001 7.55325 6.00001 6.99992C6.00001 6.44659 6.44668 5.99992 7.00001 5.99992C7.55334 5.99992 8.00001 6.44659 8.00001 6.99992C8.00001 7.55325 7.55334 7.99992 7.00001 7.99992ZM10.3333 7.99992C9.78001 7.99992 9.33334 7.55325 9.33334 6.99992C9.33334 6.44659 9.78001 5.99992 10.3333 5.99992C10.8867 5.99992 11.3333 6.44659 11.3333 6.99992C11.3333 7.55325 10.8867 7.99992 10.3333 7.99992Z" fill="#F1C21B"/>
</svg>
