<svg width="18" height="18" viewBox="0 0 18 18" fill="none" xmlns="http://www.w3.org/2000/svg">
<path d="M6.99165 9.83334C7.44999 9.83334 7.82499 10.2083 7.82499 10.6667C7.82499 11.125 7.44999 11.5 6.99165 11.5C6.53332 11.5 6.15832 11.125 6.15832 10.6667C6.15832 10.2083 6.53332 9.83334 6.99165 9.83334ZM6.99165 8.16667C5.60832 8.16667 4.49165 9.28334 4.49165 10.6667C4.49165 12.05 5.60832 13.1667 6.99165 13.1667C8.37499 13.1667 9.49166 12.05 9.49166 10.6667C9.49166 9.28334 8.37499 8.16667 6.99165 8.16667ZM14.075 6.50001L14.9833 4.49167L16.9917 3.58334L14.9833 2.675L14.075 0.666672L13.1667 2.675L11.1583 3.58334L13.1667 4.49167L14.075 6.50001ZM16.3917 9.60001L15.7417 8.16667L15.0917 9.60001L13.6583 10.25L15.0917 10.9L15.7417 12.3333L16.3917 10.9L17.825 10.25L16.3917 9.60001ZM12.2 10.6667C12.2 10.5667 12.2 10.4583 12.1917 10.3583L13.8083 9.13334L11.725 5.52501L9.85832 6.30834C9.69166 6.20001 9.50832 6.09167 9.32499 6.00001L9.07499 4.00001H4.90832L4.65832 6.00834C4.47499 6.10001 4.29999 6.20834 4.12499 6.31667L2.25832 5.52501L0.174988 9.13334L1.79165 10.3583C1.78332 10.4583 1.78332 10.5667 1.78332 10.6667C1.78332 10.7667 1.78332 10.875 1.79165 10.975L0.174988 12.2L2.25832 15.8083L4.12499 15.025C4.29165 15.1333 4.47499 15.2417 4.65832 15.3333L4.90832 17.3333H9.07499L9.32499 15.325C9.50832 15.2333 9.68332 15.1333 9.85832 15.0167L11.725 15.8L13.8083 12.1917L12.1917 10.9667C12.2 10.875 12.2 10.7667 12.2 10.6667ZM11.0167 13.7L9.57499 13.0917C9.10832 13.5917 8.49166 13.9583 7.79999 14.1167L7.59999 15.6667H6.38332L6.19165 14.1167C5.49999 13.9583 4.88332 13.5917 4.41665 13.0917L2.97499 13.7L2.36665 12.6417L3.60832 11.7C3.50832 11.375 3.45832 11.0333 3.45832 10.675C3.45832 10.3167 3.50832 9.97501 3.60832 9.65001L2.36665 8.70834L2.97499 7.65001L4.41665 8.25834C4.88332 7.75834 5.49999 7.39167 6.19165 7.23334L6.38332 5.66667H7.60832L7.79999 7.21667C8.49166 7.37501 9.10832 7.74167 9.57499 8.24167L11.0167 7.63334L11.625 8.69167L10.3833 9.63334C10.4833 9.95834 10.5333 10.3 10.5333 10.6583C10.5333 11.0167 10.4833 11.3583 10.3833 11.6833L11.625 12.625L11.0167 13.7Z" fill="#666666"/>
</svg>
