<svg width="14" height="14" viewBox="0 0 14 14" fill="none" xmlns="http://www.w3.org/2000/svg">
<path d="M9 6H13C13.2651 5.9997 13.5193 5.89424 13.7068 5.70677C13.8942 5.5193 13.9997 5.26512 14 5V1C13.9997 0.734877 13.8942 0.4807 13.7068 0.293229C13.5193 0.105759 13.2651 0.000304367 13 0H9C8.73488 0.000304367 8.4807 0.105759 8.29323 0.293229C8.10576 0.4807 8.0003 0.734877 8 1H3.5C3.23488 1.0003 2.9807 1.10576 2.79323 1.29323C2.60576 1.4807 2.5003 1.73488 2.5 2V4H1C0.734877 4.0003 0.4807 4.10576 0.293229 4.29323C0.105759 4.4807 0.000304367 4.73488 0 5V9C0.000304367 9.26512 0.105759 9.5193 0.293229 9.70677C0.4807 9.89424 0.734877 9.9997 1 10H2V12C2.0003 12.2651 2.10576 12.5193 2.29323 12.7068C2.4807 12.8942 2.73488 12.9997 3 13H8C8.0003 13.2651 8.10576 13.5193 8.29323 13.7068C8.4807 13.8942 8.73488 13.9997 9 14H13C13.2651 13.9997 13.5193 13.8942 13.7068 13.7068C13.8942 13.5193 13.9997 13.2651 14 13V9C13.9997 8.73488 13.8942 8.4807 13.7068 8.29323C13.5193 8.10576 13.2651 8.0003 13 8H9C8.73488 8.0003 8.4807 8.10576 8.29323 8.29323C8.10576 8.4807 8.0003 8.73488 8 9V12H3V10H5C5.26512 9.9997 5.5193 9.89424 5.70677 9.70677C5.89424 9.5193 5.9997 9.26512 6 9V5C5.9997 4.73488 5.89424 4.4807 5.70677 4.29323C5.5193 4.10576 5.26512 4.0003 5 4H3.5V2H8V5C8.0003 5.26512 8.10576 5.5193 8.29323 5.70677C8.4807 5.89424 8.73488 5.9997 9 6ZM9 13V11H13V13H9ZM13 9V10H9V9H13ZM1 9V7H5V9H1ZM5.00025 6H1V5H5L5.00025 6ZM9 5V3H13V5H9ZM13 1V2H9V1H13Z" fill="#C6C6C6"/>
</svg>
