<svg width="12" height="14" viewBox="0 0 12 14" fill="none" xmlns="http://www.w3.org/2000/svg">
<path d="M11 1V13H1V1H11ZM11 0H1C0.734784 0 0.48043 0.105357 0.292893 0.292893C0.105357 0.48043 0 0.734784 0 1V13C0 13.2652 0.105357 13.5196 0.292893 13.7071C0.48043 13.8946 0.734784 14 1 14H11C11.2652 14 11.5196 13.8946 11.7071 13.7071C11.8946 13.5196 12 13.2652 12 13V1C12 0.734784 11.8946 0.48043 11.7071 0.292893C11.5196 0.105357 11.2652 0 11 0Z" fill="#161616"/>
<path d="M3.5 10.5H2.5V11.5H3.5V10.5Z" fill="#161616"/>
<path d="M9.5 10.5H8.5V11.5H9.5V10.5Z" fill="#161616"/>
<path d="M3.5 8H2.5V9H3.5V8Z" fill="#161616"/>
<path d="M9.5 8H8.5V9H9.5V8Z" fill="#161616"/>
<path d="M3.5 5.5H2.5V6.5H3.5V5.5Z" fill="#161616"/>
<path d="M6.5 10.5H5.5V11.5H6.5V10.5Z" fill="#161616"/>
<path d="M6.5 8H5.5V9H6.5V8Z" fill="#161616"/>
<path d="M6.5 5.5H5.5V6.5H6.5V5.5Z" fill="#161616"/>
<path d="M9.5 5.5H8.5V6.5H9.5V5.5Z" fill="#161616"/>
<path d="M9.5 2.5H2.5V4H9.5V2.5Z" fill="#161616"/>
</svg>
