<svg width="14" height="16" viewBox="0 0 14 16" fill="none" xmlns="http://www.w3.org/2000/svg">
<path d="M13.252 4.06812L7.25195 0.568119C7.17548 0.523507 7.08853 0.5 7 0.5C6.91147 0.5 6.82452 0.523507 6.74805 0.568119L0.74805 4.06812C0.672566 4.11215 0.609942 4.1752 0.56642 4.25099C0.522897 4.32677 0.499997 4.41263 0.5 4.50002V11.5C0.499997 11.5874 0.522897 11.6733 0.56642 11.7491C0.609942 11.8248 0.672566 11.8879 0.74805 11.9319L6.74805 15.4319C6.82452 15.4765 6.91147 15.5 7 15.5C7.08853 15.5 7.17548 15.4765 7.25195 15.4319L13.252 11.9319C13.3274 11.8879 13.3901 11.8248 13.4336 11.7491C13.4771 11.6733 13.5 11.5874 13.5 11.5V4.50002C13.5 4.41263 13.4771 4.32677 13.4336 4.25099C13.3901 4.1752 13.3274 4.11215 13.252 4.06812ZM7 1.57887L12.0078 4.50002L7 7.42117L1.9922 4.50002L7 1.57887ZM1.5 5.37062L6.5 8.28712V14.1294L1.5 11.2129V5.37062ZM7.5 14.1294V8.28712L12.5 5.37062V11.2129L7.5 14.1294Z" fill="#C6C6C6"/>
</svg>
