<svg width="14" height="13" viewBox="0 0 14 13" fill="none" xmlns="http://www.w3.org/2000/svg">
<path d="M14 8H7V9H14V8Z" fill="#C6C6C6"/>
<path d="M14 10H7V11H14V10Z" fill="#C6C6C6"/>
<path d="M10.5 12H7V13H10.5V12Z" fill="#C6C6C6"/>
<path d="M6 11H1V1H4.585L6.295 2.705L6.585 3H13V7H14V3C14 2.73478 13.8946 2.48043 13.7071 2.29289C13.5196 2.10536 13.2652 2 13 2H7L5.295 0.295C5.20197 0.201416 5.09134 0.127169 4.96948 0.0765386C4.84763 0.0259082 4.71696 -0.000104246 4.585 3.13967e-07H1C0.734784 3.13967e-07 0.48043 0.105357 0.292893 0.292893C0.105357 0.48043 0 0.734784 0 1V11C0 11.2652 0.105357 11.5196 0.292893 11.7071C0.48043 11.8946 0.734784 12 1 12H6V11Z" fill="#C6C6C6"/>
</svg>
