<svg width="13" height="13" viewBox="0 0 13 13" xmlns="http://www.w3.org/2000/svg">
<path d="M11 13.0015H1C0.734893 13.0011 0.480747 12.8956 0.293288 12.7082C0.105829 12.5207 0.000357171 12.2666 0 12.0015V2.00146C0.000357171 1.73636 0.105829 1.48221 0.293288 1.29475C0.480747 1.10729 0.734893 1.00182 1 1.00146H6V2.00146H1V12.0015H11V7.00146H12V12.0015C11.9996 12.2666 11.8942 12.5207 11.7067 12.7082C11.5193 12.8956 11.2651 13.0011 11 13.0015Z"/>
<path d="M8 0.00146484V1.00146H11.293L7 5.29447L7.707 6.00146L12 1.70846V5.00146H13V0.00146484H8Z"/>
</svg>
