<svg width="13" height="14" viewBox="0 0 13 14" fill="none" xmlns="http://www.w3.org/2000/svg">
<path d="M1.8125 14H7.8125C8.07762 13.9997 8.3318 13.8942 8.51927 13.7068C8.70674 13.5193 8.8122 13.2651 8.8125 13V11.5H7.8125V13H1.8125V1H7.8125V2.5H8.8125V1C8.8122 0.734877 8.70674 0.4807 8.51927 0.293229C8.3318 0.105759 8.07762 0.000304367 7.8125 0H1.8125C1.54738 0.000304367 1.2932 0.105759 1.10573 0.293229C0.918259 0.4807 0.812804 0.734877 0.8125 1V13C0.812804 13.2651 0.918259 13.5193 1.10573 13.7068C1.2932 13.8942 1.54738 13.9997 1.8125 14Z" fill="#008542"/>
<path d="M9.1055 9.293L10.8985 7.5H3.8125V6.5H10.8985L9.1055 4.707L9.8125 4L12.8125 7L9.8125 10L9.1055 9.293Z" fill="#008542"/>
</svg>
