<svg width="14" height="14" viewBox="0 0 14 14" fill="none" xmlns="http://www.w3.org/2000/svg">
<path d="M1.5 8V9H4.293L0.5 12.793L1.207 13.5L5 9.707V12.5H6V8H1.5Z" fill="#525252"/>
<path d="M12.5 0.5H1.5C1.23478 0.5 0.98043 0.605357 0.792893 0.792893C0.605357 0.98043 0.5 1.23478 0.5 1.5V6.5H1.5V4.5H6.5V6.5H7.5V4.5H12.5V8H7.5V9H12.5V12.5H7.5V13.5H12.5C12.7652 13.5 13.0196 13.3946 13.2071 13.2071C13.3946 13.0196 13.5 12.7652 13.5 12.5V1.5C13.5 1.23478 13.3946 0.98043 13.2071 0.792893C13.0196 0.605357 12.7652 0.5 12.5 0.5ZM12.5 3.5H1.5V1.5H12.5V3.5Z" fill="#525252"/>
</svg>
