<svg width="12" height="14" viewBox="0 0 12 14" fill="none" xmlns="http://www.w3.org/2000/svg">
<path d="M3 7C3.55228 7 4 6.55228 4 6C4 5.44772 3.55228 5 3 5C2.44772 5 2 5.44772 2 6C2 6.55228 2.44772 7 3 7Z" fill="#525252"/>
<path d="M6 14C5.9342 14.0004 5.86897 13.9878 5.80805 13.9629C5.74713 13.938 5.69172 13.9013 5.645 13.855L0.295 8.5C0.107206 8.31332 0.00111639 8.05979 0 7.795V4C0 3.73478 0.105357 3.48043 0.292893 3.29289C0.48043 3.10536 0.734784 3 1 3H4.795C5.05979 3.00112 5.31332 3.10721 5.5 3.295L10.855 8.645C10.9019 8.69148 10.9391 8.74678 10.9644 8.80771C10.9898 8.86864 11.0029 8.93399 11.0029 9C11.0029 9.06601 10.9898 9.13136 10.9644 9.19229C10.9391 9.25322 10.9019 9.30852 10.855 9.355L6.355 13.855C6.30828 13.9013 6.25287 13.938 6.19195 13.9629C6.13103 13.9878 6.0658 14.0004 6 14ZM1 4V7.795L6 12.795L9.795 9L4.795 4H1Z" fill="#525252"/>
<path d="M11.855 5.645L6.5 0.295C6.31332 0.107206 6.05979 0.00111639 5.795 0H2C1.73478 0 1.48043 0.105357 1.29289 0.292893C1.10536 0.48043 1 0.734784 1 1V2H2V1H5.795L10.795 6L10.145 6.645L10.855 7.355L11.855 6.355C11.9019 6.30852 11.9391 6.25322 11.9644 6.19229C11.9898 6.13136 12.0029 6.06601 12.0029 6C12.0029 5.93399 11.9898 5.86864 11.9644 5.80771C11.9391 5.74678 11.9019 5.69148 11.855 5.645Z" fill="#525252"/>
</svg>
