<svg width="2" height="10" viewBox="0 0 2 10" xmlns="http://www.w3.org/2000/svg">
<path d="M1 2.00293C1.55228 2.00293 2 1.55521 2 1.00293C2 0.450645 1.55228 0.00292969 1 0.00292969C0.447715 0.00292969 0 0.450645 0 1.00293C0 1.55521 0.447715 2.00293 1 2.00293Z"/>
<path d="M1 6.00293C1.55228 6.00293 2 5.55521 2 5.00293C2 4.45064 1.55228 4.00293 1 4.00293C0.447715 4.00293 0 4.45064 0 5.00293C0 5.55521 0.447715 6.00293 1 6.00293Z" />
<path d="M1 10.0029C1.55228 10.0029 2 9.55521 2 9.00293C2 8.45064 1.55228 8.00293 1 8.00293C0.447715 8.00293 0 8.45064 0 9.00293C0 9.55521 0.447715 10.0029 1 10.0029Z" />
</svg>
