<svg width="10" height="15" viewBox="0 0 10 15" fill="none" xmlns="http://www.w3.org/2000/svg">
<path d="M9 6.36221H3V3.36221C3 2.83178 3.21071 2.32307 3.58579 1.948C3.96086 1.57293 4.46957 1.36221 5 1.36221C5.53043 1.36221 6.03914 1.57293 6.41421 1.948C6.78929 2.32307 7 2.83178 7 3.36221H8C8 2.56656 7.68393 1.8035 7.12132 1.24089C6.55871 0.678284 5.79565 0.362213 5 0.362213C4.20435 0.362213 3.44129 0.678284 2.87868 1.24089C2.31607 1.8035 2 2.56656 2 3.36221V6.36221H1C0.734784 6.36221 0.48043 6.46757 0.292893 6.65511C0.105357 6.84264 0 7.097 0 7.36221V13.3622C0 13.6274 0.105357 13.8818 0.292893 14.0693C0.48043 14.2569 0.734784 14.3622 1 14.3622H9C9.26522 14.3622 9.51957 14.2569 9.70711 14.0693C9.89464 13.8818 10 13.6274 10 13.3622V7.36221C10 7.097 9.89464 6.84264 9.70711 6.65511C9.51957 6.46757 9.26522 6.36221 9 6.36221ZM9 13.3622H1V7.36221H9V13.3622Z" fill="white"/>
</svg>
