<svg width="14" height="14" viewBox="0 0 14 14" xmlns="http://www.w3.org/2000/svg">
<path d="M14 4V3H12.9494C12.885 2.68703 12.7607 2.38944 12.5835 2.12355L13.3285 1.37855L12.6215 0.67155L11.8765 1.41655C11.6106 1.2393 11.313 1.11503 11 1.05055V0H10V1.05055C9.68703 1.11502 9.38944 1.23928 9.12355 1.4165L8.37855 0.6715L7.67155 1.3785L8.41655 2.1235C8.2393 2.3894 8.11503 2.68701 8.05055 3H7V4H8.05055C8.11502 4.31297 8.23928 4.61056 8.4165 4.87645L7.6715 5.62145L8.3785 6.32845L9.1235 5.58345C9.3894 5.7607 9.68701 5.88497 10 5.94945V7H11V5.94945C11.313 5.88498 11.6106 5.76072 11.8764 5.5835L12.6215 6.3285L13.3285 5.6215L12.5835 4.8765C12.7607 4.6106 12.885 4.31299 12.9494 4H14ZM10.5 5C10.2033 5 9.91332 4.91203 9.66665 4.7472C9.41997 4.58238 9.22771 4.34811 9.11418 4.07403C9.00065 3.79994 8.97094 3.49834 9.02882 3.20736C9.0867 2.91639 9.22956 2.64912 9.43934 2.43934C9.64912 2.22956 9.91639 2.0867 10.2074 2.02882C10.4983 1.97094 10.7999 2.00065 11.074 2.11418C11.3481 2.22771 11.5824 2.41997 11.7472 2.66664C11.912 2.91332 12 3.20333 12 3.5C11.9996 3.89769 11.8414 4.27897 11.5602 4.56018C11.279 4.84139 10.8977 4.99956 10.5 5Z"/>
<path d="M7 14H6V11.5C5.99956 11.1023 5.84139 10.721 5.56018 10.4398C5.27897 10.1586 4.89769 10.0004 4.5 10H2.5C2.10231 10.0004 1.72103 10.1586 1.43982 10.4398C1.15861 10.721 1.00044 11.1023 1 11.5V14H0V11.5C0.000780725 10.8372 0.264423 10.2018 0.733095 9.7331C1.20177 9.26442 1.8372 9.00078 2.5 9H4.5C5.1628 9.00078 5.79823 9.26442 6.2669 9.7331C6.73558 10.2018 6.99922 10.8372 7 11.5V14Z" />
<path d="M3.5 4C3.79667 4 4.08668 4.08797 4.33336 4.2528C4.58003 4.41762 4.77229 4.65189 4.88582 4.92597C4.99935 5.20006 5.02906 5.50166 4.97118 5.79264C4.9133 6.08361 4.77044 6.35088 4.56066 6.56066C4.35088 6.77044 4.08361 6.9133 3.79264 6.97118C3.50166 7.02906 3.20006 6.99935 2.92597 6.88582C2.65189 6.77229 2.41762 6.58003 2.2528 6.33336C2.08797 6.08668 2 5.79667 2 5.5C2 5.10218 2.15804 4.72064 2.43934 4.43934C2.72064 4.15804 3.10218 4 3.5 4ZM3.5 3C3.00555 3 2.5222 3.14662 2.11107 3.42133C1.69995 3.69603 1.37952 4.08648 1.1903 4.54329C1.00108 5.00011 0.951574 5.50277 1.04804 5.98773C1.1445 6.47268 1.3826 6.91814 1.73223 7.26777C2.08186 7.6174 2.52732 7.8555 3.01227 7.95196C3.49723 8.04843 3.99989 7.99892 4.45671 7.8097C4.91352 7.62048 5.30397 7.30005 5.57867 6.88893C5.85338 6.4778 6 5.99445 6 5.5C6 5.1717 5.93534 4.84661 5.8097 4.54329C5.68406 4.23998 5.49991 3.96438 5.26777 3.73223C5.03562 3.50009 4.76002 3.31594 4.45671 3.1903C4.15339 3.06466 3.8283 3 3.5 3Z"/>
</svg>
