<svg width="14" height="14" viewBox="0 0 14 14"  xmlns="http://www.w3.org/2000/svg">
<path d="M13.035 9.50146L10 6.50146L13.035 3.50146L13.75 4.20646L11.43 6.50146L13.75 8.79646L13.035 9.50146Z" />
<path d="M10 14.0015H9V11.5015C9 10.8384 8.73661 10.2025 8.26777 9.7337C7.79893 9.26486 7.16304 9.00146 6.5 9.00146H3.5C2.83696 9.00146 2.20107 9.26486 1.73223 9.7337C1.26339 10.2025 1 10.8384 1 11.5015V14.0015H0V11.5015C0 10.5732 0.368749 9.68297 1.02513 9.02659C1.6815 8.37021 2.57174 8.00146 3.5 8.00146H6.5C7.42826 8.00146 8.3185 8.37021 8.97487 9.02659C9.63125 9.68297 10 10.5732 10 11.5015V14.0015Z" />
<path d="M5 1.00146C5.49445 1.00146 5.9778 1.14809 6.38893 1.42279C6.80005 1.69749 7.12048 2.08794 7.3097 2.54476C7.49892 3.00157 7.54843 3.50424 7.45196 3.98919C7.3555 4.47414 7.1174 4.9196 6.76777 5.26923C6.41814 5.61886 5.97268 5.85697 5.48773 5.95343C5.00277 6.04989 4.50011 6.00038 4.04329 5.81116C3.58648 5.62194 3.19603 5.30151 2.92133 4.89039C2.64662 4.47927 2.5 3.99592 2.5 3.50146C2.5 2.83842 2.76339 2.20254 3.23223 1.7337C3.70107 1.26486 4.33696 1.00146 5 1.00146ZM5 0.00146484C4.30777 0.00146484 3.63108 0.206736 3.0555 0.591321C2.47993 0.975906 2.03133 1.52253 1.76642 2.16207C1.50151 2.80161 1.4322 3.50535 1.56725 4.18428C1.7023 4.86321 2.03564 5.48685 2.52513 5.97634C3.01461 6.46582 3.63825 6.79916 4.31718 6.93421C4.99612 7.06926 5.69985 6.99995 6.33939 6.73504C6.97893 6.47014 7.52556 6.02153 7.91014 5.44596C8.29473 4.87039 8.5 4.1937 8.5 3.50146C8.5 2.57321 8.13125 1.68297 7.47487 1.02659C6.8185 0.370214 5.92826 0.00146484 5 0.00146484Z"/>
</svg>
