<svg width="14" height="14" viewBox="0 0 14 14" xmlns="http://www.w3.org/2000/svg">
<path d="M14 14.0015H13V11.5015C12.9992 10.8387 12.7356 10.2032 12.2669 9.73453C11.7983 9.26585 11.1628 9.00222 10.5 9.00146V8.00146C11.4279 8.0025 12.3176 8.37158 12.9737 9.02773C13.6299 9.68388 13.999 10.5735 14 11.5015V14.0015Z" />
<path d="M10 14.0015H9V11.5015C8.99922 10.8387 8.73558 10.2032 8.2669 9.73456C7.79823 9.26589 7.1628 9.00225 6.5 9.00146H3.5C2.8372 9.00225 2.20177 9.26589 1.7331 9.73456C1.26442 10.2032 1.00078 10.8387 1 11.5015V14.0015H0V11.5015C0.00108509 10.5735 0.370183 9.68393 1.02632 9.02779C1.68247 8.37165 2.57208 8.00255 3.5 8.00146H6.5C7.42792 8.00255 8.31753 8.37165 8.97368 9.02779C9.62982 9.68393 9.99891 10.5735 10 11.5015V14.0015Z"/>
<path d="M9 0.00146484V1.00146C9.66304 1.00146 10.2989 1.26486 10.7678 1.7337C11.2366 2.20254 11.5 2.83842 11.5 3.50146C11.5 4.16451 11.2366 4.80039 10.7678 5.26923C10.2989 5.73807 9.66304 6.00146 9 6.00146V7.00146C9.92826 7.00146 10.8185 6.63272 11.4749 5.97634C12.1313 5.31996 12.5 4.42972 12.5 3.50146C12.5 2.57321 12.1313 1.68297 11.4749 1.02659C10.8185 0.370214 9.92826 0.00146484 9 0.00146484Z" />
<path d="M5 1.00146C5.49445 1.00146 5.9778 1.14809 6.38893 1.42279C6.80005 1.69749 7.12048 2.08794 7.3097 2.54476C7.49892 3.00157 7.54843 3.50424 7.45196 3.98919C7.3555 4.47414 7.1174 4.9196 6.76777 5.26923C6.41814 5.61886 5.97268 5.85697 5.48773 5.95343C5.00277 6.04989 4.50011 6.00038 4.04329 5.81116C3.58648 5.62194 3.19603 5.30151 2.92133 4.89039C2.64662 4.47927 2.5 3.99592 2.5 3.50146C2.5 2.83842 2.76339 2.20254 3.23223 1.7337C3.70107 1.26486 4.33696 1.00146 5 1.00146ZM5 0.00146484C4.30777 0.00146484 3.63108 0.206736 3.0555 0.591321C2.47993 0.975906 2.03133 1.52253 1.76642 2.16207C1.50151 2.80161 1.4322 3.50535 1.56725 4.18428C1.7023 4.86321 2.03564 5.48685 2.52513 5.97634C3.01461 6.46582 3.63825 6.79916 4.31718 6.93421C4.99612 7.06926 5.69985 6.99995 6.33939 6.73504C6.97893 6.47014 7.52556 6.02153 7.91014 5.44596C8.29473 4.87039 8.5 4.1937 8.5 3.50146C8.5 2.57321 8.13125 1.68297 7.47487 1.02659C6.8185 0.370214 5.92826 0.00146484 5 0.00146484Z" />
</svg>
